<?xml version="1.0" encoding="UTF-8"?>
<svg width="300px" height="50px" viewBox="0 0 300 50" version="1.1" xmlns="http://www.w3.org/2000/svg" xmlns:xlink="http://www.w3.org/1999/xlink">
    <!-- Generator: Sketch 52.2 (67145) - http://www.bohemiancoding.com/sketch -->
    <title>MEDATC</title>
    <desc>Created with Sketch.</desc>
    <g id="Page-1" stroke="none" stroke-width="1" fill="none" fill-rule="evenodd">
        <g id="移动端-密码登录" transform="translate(-225.000000, -208.000000)">
            <g id="MEDATC" transform="translate(225.000000, 208.000000)">
                <path d="M12.5,37.5 L31.25,37.5 L31.25,37.5 C31.25,44.4035594 25.6535594,50 18.75,50 L0,50 L0,50 C-8.45442189e-16,43.0964406 5.59644063,37.5 12.5,37.5 Z" id="Rectangle-6-Copy-2" fill="#02C77E"></path>
                <path d="M37.5,20.8333333 L31.25,31.25 L18.75,31.25 L12.5,20.8333333 L12.5,35 L12.375,35 C7.31955869,35 2.82939967,37.4202612 4.16333634e-16,41.1653064 L0,0 L12.5,0 L25,20.8333333 L37.5,0 L50,0 L50,50 L37.5,50 L37.5,20.8333333 Z" id="Combined-Shape" fill="#1265B1"></path>
                <path d="M98.75,50 L80,50 C66.1928813,50 55,38.8071187 55,25 C55,11.1928813 66.1928813,2.53632657e-15 80,0 L98.75,0 L98.75,12.5 L80,12.5 C73.0964406,12.5 67.5,18.0964406 67.5,25 C67.5,31.9035594 73.0964406,37.5 80,37.5 L98.75,37.5 L98.75,50 Z M79.375,18.75 L98.75,18.75 L98.75,31.25 L79.375,31.25 C75.9232203,31.25 73.125,28.4517797 73.125,25 C73.125,21.5482203 75.9232203,18.75 79.375,18.75 Z" id="Combined-Shape" fill="#1265B1"></path>
                <path d="M134.427747,28.75 L147.220624,28.75 C145.411311,40.7781577 135.032594,50 122.5,50 L103.75,50 L103.75,0 L116.25,0 L116.25,37.5 L122.5,37.5 C128.097052,37.5 132.834918,33.8213837 134.427747,28.75 Z M123.75,21.25 L123.75,0.0307062581 C135.717246,0.619993101 145.471823,9.62412724 147.220624,21.25 L123.75,21.25 Z" id="Rectangle-6-Copy" fill="#1265B1" fill-rule="nonzero"></path>
                <path d="M165,37.5 L165,50 L152.5,50 L152.5,25 C152.5,11.1928813 163.692881,2.53632657e-15 177.5,0 L196.25,0 L196.25,50 L183.75,50 L183.75,37.5 L165,37.5 Z M165,25 L183.75,25 L183.75,12.5 L177.5,12.5 C170.596441,12.5 165,18.0964406 165,25 Z" id="Combined-Shape" fill="#1265B1"></path>
                <polygon id="Combined-Shape" fill="#1265B1" points="229.375 12.5 229.375 50 216.875 50 216.875 12.5 201.25 12.5 201.25 0 245 0 245 12.5"></polygon>
                <path d="M289.423228,4.57763914 L282.288398,14.8435816 C280.236663,13.3686207 277.71977,12.5 275,12.5 C268.096441,12.5 262.5,18.0964406 262.5,25 C262.5,31.9035594 268.096441,37.5 275,37.5 C281.903559,37.5 287.5,31.9035594 287.5,25 L300,25 C300,38.8071187 288.807119,50 275,50 C261.192881,50 250,38.8071187 250,25 C250,11.1928813 261.192881,0 275,0 C280.371874,0 285.348026,1.69428888 289.423228,4.57763914 Z" id="Combined-Shape" fill="#1265B1" fill-rule="nonzero"></path>
            </g>
        </g>
    </g>
</svg>